# File created by Blade
# Date/Time:  Wed Jan 21 19:03:17 2015
#---------------------------------------------------------
:version 1.10
:name HOM
:units
  mass 1.0
  length 1.000000
  angle deg
:documentation
     Acclaim Skeleton File
:root
   axis xyz
   order TX TY TZ RX RY RZ
   position 0.000000 0.000000 0.000000
   orientation 0 0 0
:bonedata
   begin
      id 1
      name RightUpLeg_dum
      direction -1.000000 0.000000 0.000000
      length 3.693983
      axis 0.0 0.0 0.0 xyz
   end
   begin
      id 2
      name LeftUpLeg_dum
      direction 1.000000 0.000000 0.000000
      length 3.693983
      axis 0.0 0.0 0.0 xyz
   end
   begin
      id 3
      name Spine_dum
      direction 0.000000 1.000000 0.000000
      length 2.392956
      axis 0.0 0.0 0.0 xyz
   end
   begin
      id 4
      name RightUpLeg
      direction 0.000000 -1.000000 0.000000
      length 15.795667
      axis 0.0 0.0 0.0 xyz
      dof rx ry rz
   end
   begin
      id 5
      name RightLeg
      direction 0.000000 -1.000000 0.000000
      length 14.766989
      axis 0.0 0.0 0.0 xyz
      dof rx ry rz
   end
   begin
      id 6
      name RightFoot
      direction 0.000000 -0.258819 0.965926
      length 4.962790
      axis 15.0 0.0 0.0 xyz
      dof rx ry rz
   end
   begin
      id 7
      name RightToeBase
      direction 0.000000 0.000000 1.000000
      length 2.952750
      axis 0.0 0.0 0.0 xyz
      dof rx ry rz
   end
   begin
      id 8
      name LeftUpLeg
      direction 0.000000 -1.000000 0.000000
      length 15.795667
      axis 0.0 0.0 0.0 xyz
      dof rx ry rz
   end
   begin
      id 9
      name LeftLeg
      direction 0.000000 -1.000000 0.000000
      length 14.766989
      axis 0.0 0.0 0.0 xyz
      dof rx ry rz
   end
   begin
      id 10
      name LeftFoot
      direction 0.000000 -0.258819 0.965926
      length 4.962790
      axis 15.0 0.0 0.0 xyz
      dof rx ry rz
   end
   begin
      id 11
      name LeftToeBase
      direction 0.000000 0.000000 1.000000
      length 2.952750
      axis 0.0 0.0 0.0 xyz
      dof rx ry rz
   end
   begin
      id 12
      name Spine
      direction 0.000000 1.000000 0.000000
      length 0.000000
      axis 0.0 0.0 0.0 xyz
      dof rx ry rz
   end
   begin
      id 13
      name Spine_dum1
      direction 0.000000 1.000000 0.000000
      length 13.207411
      axis 0.0 0.0 0.0 xyz
   end
   begin
      id 14
      name Spine_dum2
      direction 0.000000 1.000000 0.000000
      length 13.207411
      axis 0.0 0.0 0.0 xyz
   end
   begin
      id 15
      name Spine_dum3
      direction 0.000000 1.000000 0.000000
      length 19.250100
      axis 0.0 0.0 0.0 xyz
   end
   begin
      id 16
      name RightShoulder
      direction -1.000000 0.000000 0.000000
      length 8.140465
      axis 0.0 0.0 90.0 xyz
      dof rx ry rz
   end
   begin
      id 17
      name RightArm
      direction -1.000000 0.000000 0.000000
      length 10.649840
      axis 0.0 0.0 90.0 xyz
      dof rx ry rz
   end
   begin
      id 18
      name RightForeArm
      direction -1.000000 0.000000 0.000000
      length 8.304624
      axis 0.0 0.0 90.0 xyz
      dof ry rz rx
   end
   begin
      id 19
      name RightHand
      direction -1.000000 0.000000 0.000000
      length 0.000000
      axis 0.0 0.0 90.0 xyz
      dof rx ry rz
   end
   begin
      id 20
      name RightHand_dum1
      direction -1.000000 0.000000 0.000000
      length 3.937000
      axis 0.0 0.0 90.0 xyz
   end
   begin
      id 21
      name RightHand_dum2
      direction 0.000000 0.000000 0.000000
      length 0.000000
      axis 0.0 0.0 90.0 xyz
   end
   begin
      id 22
      name RightHandThumb1
      direction 0.000000 0.000000 1.000000
      length 3.937000
      axis 0.0 0.0 90.0 xyz
      dof rx rz ry
   end
   begin
      id 23
      name LeftShoulder
      direction 1.000000 0.000000 0.000000
      length 8.140465
      axis 0.0 0.0 -90.0 xyz
      dof rx ry rz
   end
   begin
      id 24
      name LeftArm
      direction 1.000000 0.000000 0.000000
      length 10.649840
      axis 0.0 0.0 -90.0 xyz
      dof rx ry rz
   end
   begin
      id 25
      name LeftForeArm
      direction 1.000000 0.000000 0.000000
      length 8.304624
      axis 0.0 0.0 -90.0 xyz
      dof ry rz rx
   end
   begin
      id 26
      name LeftHand
      direction 1.000000 0.000000 0.000000
      length 0.000000
      axis 0.0 0.0 -90.0 xyz
      dof rx ry rz
   end
   begin
      id 27
      name LeftHand_dum1
      direction 1.000000 0.000000 0.000000
      length 3.937000
      axis 0.0 0.0 -90.0 xyz
   end
   begin
      id 28
      name LeftHand_dum2
      direction 0.000000 0.000000 0.000000
      length 0.000000
      axis 0.0 0.0 -90.0 xyz
   end
   begin
      id 29
      name LeftHandThumb1
      direction 0.000000 0.000000 1.000000
      length 3.937000
      axis 0.0 0.0 -90.0 xyz
      dof rx rz ry
   end
   begin
      id 30
      name Head
      direction 0.000000 1.000000 0.000000
      length 4.527550
      axis 0.0 0.0 0.0 xyz
      dof rx ry rz
   end
:hierarchy
   begin
      root RightUpLeg_dum LeftUpLeg_dum Spine_dum
      RightUpLeg_dum RightUpLeg
      LeftUpLeg_dum LeftUpLeg
      Spine_dum Spine
      RightUpLeg RightLeg
      RightLeg RightFoot
      RightFoot RightToeBase
      LeftUpLeg LeftLeg
      LeftLeg LeftFoot
      LeftFoot LeftToeBase
      Spine Spine_dum1 Spine_dum2 Spine_dum3
      Spine_dum1 RightShoulder
      Spine_dum2 LeftShoulder
      Spine_dum3 Head
      RightShoulder RightArm
      RightArm RightForeArm
      RightForeArm RightHand
      RightHand RightHand_dum1 RightHand_dum2
      RightHand_dum2 RightHandThumb1
      LeftShoulder LeftArm
      LeftArm LeftForeArm
      LeftForeArm LeftHand
      LeftHand LeftHand_dum1 LeftHand_dum2
      LeftHand_dum2 LeftHandThumb1
   end

# File created by Blade
# Date/Time:  Wed Jan 21 19:03:07 2015
# Frame Rate: 120.000 fps
#------------------------------------------------------
:FULLY-SPECIFIED
:DEGREES
508
root -5.170867 29.476187 -13.304556 112.808665 -28.830773 5.662814
RightUpLeg -133.344941 -23.803712 4.074388
RightLeg -5.129934 -0.000000 0.000000
RightFoot 7.239554 -8.449249 31.851201
RightToeBase 20.277538 -0.000000 -0.000000
LeftUpLeg -111.175826 9.106917 -29.044916
LeftLeg -5.794367 -0.000000 0.000000
LeftFoot 1.227030 9.025790 -27.157686
LeftToeBase 7.266058 -0.000000 -0.000000
Spine -16.213860 -6.218263 15.161816
RightShoulder -5.133873 37.059345 -33.818405
RightArm 21.497572 -10.493744 62.634596
RightForeArm 17.869011 0.000000 35.734476
RightHand 11.616247 -0.000000 0.914787
RightHandThumb1 -24.326973 -0.000000 -32.862282
LeftShoulder 11.563025 -17.808833 31.023063
LeftArm 58.264289 7.029978 -79.897731
LeftForeArm -4.355852 -0.000000 29.807823
LeftHand -11.341724 -0.000000 -2.414646
LeftHandThumb1 -26.253704 0.000000 33.147579
Head -37.758556 5.264476 7.944759
509
root -5.168290 29.476735 -13.273123 113.126396 -29.041102 5.594111
RightUpLeg -133.647875 -23.732610 4.121663
RightLeg -5.200955 -0.000000 0.000000
RightFoot 7.287074 -8.501386 32.074982
RightToeBase 20.440435 -0.000000 -0.000000
LeftUpLeg -111.275337 9.093362 -29.128611
LeftLeg -5.828963 -0.000000 0.000000
LeftFoot 1.187304 8.954798 -26.931372
LeftToeBase 7.256824 -0.000000 -0.000000
Spine -15.860844 -6.372650 15.202596
RightShoulder -5.216310 37.297358 -34.061090
RightArm 21.734894 -10.958215 62.500405
RightForeArm 18.226709 -0.000000 36.490739
RightHand 11.529332 -0.000000 0.999267
RightHandThumb1 -24.326973 -0.000000 -32.862282
LeftShoulder 11.583128 -17.809886 31.148071
LeftArm 58.623985 6.965617 -79.661100
LeftForeArm -4.445800 0.000000 30.030354
LeftHand -11.250527 0.000000 -2.453067
LeftHandThumb1 -26.253704 0.000000 33.147579
Head -37.682250 5.259649 7.902323
510
root -5.170006 29.479343 -13.242286 113.465834 -29.169110 5.477914
RightUpLeg -133.943265 -23.511906 4.277242
RightLeg -5.278737 -0.000000 0.000000
RightFoot 7.545124 -8.434276 31.874845
RightToeBase 19.756349 -0.000000 -0.000000
LeftUpLeg -111.448294 9.107674 -29.236535
LeftLeg -5.837362 -0.000000 0.000000
LeftFoot 1.175000 8.845830 -26.875551
LeftToeBase 7.238458 -0.000000 -0.000000
Spine -15.481438 -6.468274 15.292446
RightShoulder -5.316804 37.444312 -34.308572
RightArm 22.084803 -11.269640 62.466479
RightForeArm 18.562608 -0.000000 37.145659
RightHand 11.343404 0.000000 1.137357
RightHandThumb1 -24.326973 -0.000000 -32.862282
LeftShoulder 11.577404 -17.803029 31.262554
LeftArm 59.036930 6.942262 -79.318378
LeftForeArm -4.637631 -0.000000 30.201150
LeftHand -11.410409 -0.000000 -2.544765
LeftHandThumb1 -26.253704 0.000000 33.147579
Head -37.665396 5.281738 7.856383
511
root -5.170908 29.477730 -13.208698 113.710453 -29.329446 5.399200
RightUpLeg -134.156157 -23.374484 4.366780
RightLeg -5.374776 -0.000000 0.000000
RightFoot 7.629334 -8.424632 31.525149
RightToeBase 19.754535 -0.000000 -0.000000
LeftUpLeg -111.495361 9.153873 -29.284340
LeftLeg -5.876511 -0.000000 0.000000
LeftFoot 1.155575 8.771927 -26.840256
LeftToeBase 7.139310 -0.000000 -0.000000
Spine -15.051990 -6.663660 15.376556
RightShoulder -5.467080 37.714567 -34.562842
RightArm 22.495352 -11.750857 62.425724
RightForeArm 18.983825 -0.000000 37.553593
RightHand 11.351569 -0.000000 1.261924
RightHandThumb1 -24.326973 -0.000000 -32.862282
LeftShoulder 11.533431 -17.728751 31.396939
LeftArm 59.455876 6.920626 -78.971054
LeftForeArm -5.015846 -0.000000 30.425002
LeftHand -11.369399 -0.000000 -2.477952
LeftHandThumb1 -26.253704 0.000000 33.147579
Head -37.650380 5.321045 7.799060
512
root -5.170894 29.475004 -13.176219 113.940135 -29.529607 5.306168
RightUpLeg -134.364592 -23.224675 4.419866
RightLeg -5.419138 -0.000000 0.000000
RightFoot 7.664369 -8.433092 31.468775
RightToeBase 19.699276 -0.000000 -0.000000
LeftUpLeg -111.501468 9.214664 -29.339766
LeftLeg -5.938178 -0.000000 0.000000
LeftFoot 1.089402 8.742082 -26.789049
LeftToeBase 7.078470 -0.000000 -0.000000
Spine -14.600151 -6.851387 15.405453
RightShoulder -5.632435 38.028370 -34.887813
RightArm 22.816171 -12.259565 62.406267
RightForeArm 19.532649 -0.000000 37.960275
RightHand 11.334692 -0.000000 1.571666
RightHandThumb1 -24.326973 -0.000000 -32.862282
LeftShoulder 11.488643 -17.735183 31.506031
LeftArm 59.775691 6.831532 -78.816414
LeftForeArm -5.039595 -0.000000 30.683480
LeftHand -11.408040 -0.000000 -2.793794
LeftHandThumb1 -26.253704 0.000000 33.147579
Head -37.656615 5.371873 7.740978
513
root -5.170025 29.474920 -13.148088 114.252762 -29.719067 5.210354
RightUpLeg -134.661803 -23.096246 4.476421
RightLeg -5.453018 -0.000000 0.000000
RightFoot 7.728747 -8.468655 31.446107
RightToeBase 19.632154 -0.000000 -0.000000
LeftUpLeg -111.618464 9.226663 -29.413930
LeftLeg -5.955214 -0.000000 0.000000
LeftFoot 0.992209 8.712844 -26.815736
LeftToeBase 7.127284 -0.000000 -0.000000
Spine -14.252303 -7.016802 15.433537
RightShoulder -5.729276 38.234232 -35.134293
RightArm 23.258453 -12.805439 62.233217
RightForeArm 20.085604 0.000000 38.298474
RightHand 11.178760 -0.000000 1.794112
RightHandThumb1 -24.326973 -0.000000 -32.862282
LeftShoulder 11.435302 -17.773668 31.676517
LeftArm 60.020892 6.755130 -78.706180
LeftForeArm -4.820873 -0.000000 31.001875
LeftHand -11.485039 -0.000000 -3.078074
LeftHandThumb1 -26.253704 0.000000 33.147579
Head -37.581719 5.398146 7.727034
514
root -5.162374 29.474074 -13.113308 114.411977 -29.917031 5.224329
RightUpLeg -134.878302 -23.043588 4.574901
RightLeg -5.483176 -0.000000 0.000000
RightFoot 7.806483 -8.410415 31.349161
RightToeBase 19.554108 -0.000000 -0.000000
LeftUpLeg -111.589827 9.181889 -29.425134
LeftLeg -5.974304 -0.000000 0.000000
LeftFoot 0.894267 8.757504 -26.784727
LeftToeBase 7.156939 -0.000000 -0.000000
Spine -13.829470 -7.235025 15.487711
RightShoulder -5.848987 38.167945 -35.354407
RightArm 23.992241 -13.295640 61.879951
RightForeArm 20.833717 -0.000000 38.531713
RightHand 11.249572 -0.000000 2.244121
RightHandThumb1 -24.326973 -0.000000 -32.862282
LeftShoulder 11.429029 -17.945429 31.743144
LeftArm 60.194105 6.657573 -78.751932
LeftForeArm -4.745331 -0.000000 31.211924
LeftHand -11.489011 -0.000000 -3.278879
LeftHandThumb1 -26.253704 0.000000 33.147579
Head -37.509813 5.395293 7.712921
